<?xml version="1.0" encoding="utf-8"?>
<svg xmlns="http://www.w3.org/2000/svg" width="600" height="300" viewBox="0 0 600 300">
	<path fill="#000" d="M472.503,124.814c2.758,24.581,0.085,41.595-9.431,59.369 c-14.124,26.375-35.951,43.904-64.072,53.619c-19.164,6.621-38.881,7.435-58.847,4.726c-17.481-2.375-34.171-7.518-50.403-14.276 c-0.498-0.207-0.934-0.569-1.399-0.861c0.553,0.102,1.131,0.13,1.658,0.314c15.869,5.581,32.085,9.65,48.894,11.057 c22.342,1.87,43.878-0.855,63.853-11.815c12.879-7.064,23.693-16.488,32.475-28.32c9.335-12.588,15.155-26.567,17.114-42.088 c2.766-21.79-3.615-40.961-17.278-57.819c-12.042-14.857-27.016-25.515-45.747-30.25c-13.109-3.313-25.863-2.27-38.048,3.993 c-5.376,2.764-11.137,4.87-16.252,8.039c-11.578,7.184-20.912,16.979-29.243,27.612c-8.093,10.323-15.713,21.02-23.312,31.719 c-5.111,7.205-9.932,14.623-14.695,22.064c-14.297,22.335-28.348,44.819-42.791,67.059c-12.012,18.504-24.866,36.422-39.294,53.15 c-3.297,3.823-6.858,7.419-10.323,11.092c-0.284,0.303-0.768,0.413-1.164,0.618c0.18-0.372,0.296-0.78,0.527-1.111 c3.705-5.32,7.593-10.52,11.101-15.961c12.652-19.634,23.312-40.375,33.675-61.275c11.782-23.759,23.403-47.594,35.301-71.296 c10.511-20.934,21.896-41.394,35.328-60.612c9.289-13.287,19.608-25.682,32.803-35.415c15.046-11.102,31.49-12.073,50.114-11.898 c23.358,0.215,40.052,8.644,55.289,20.04c14.101,11.029,21.479,19.407,32.723,37.906 C466.866,103.757,471.622,116.979,472.503,124.814z"/>
	<path fill="#000" d="M132.565,260.677c-6.696,3.271-13.862,5.131-21.242,6.22 c-15.885,2.35-30.524-0.357-43.006-11.177c-0.802-0.696-1.424-1.589-2.128-2.391c0.85,0.616,1.717,1.207,2.544,1.848 c10.317,7.949,22.148,10.616,34.907,10.028c11.801-0.537,20.574-3.503,31.22-8.309c1.604-0.723,5.122-3.231,6.25-4.62 c9.183-11.342,17.655-22.783,24.918-35.422c11.151-19.417,22.103-38.946,33.061-58.467c10.799-19.233,21.559-38.491,34.136-56.643 c9.575-13.811,20.079-26.84,33.292-37.421c9.45-7.573,19.894-13.174,31.854-15.724c5.84-1.247,11.629-2.733,17.454-4.09 c0.341-0.081,0.715,0.014,1.075,0.027c-0.278,0.181-0.537,0.396-0.837,0.538c-19.58,9.361-34.218,24.472-47.659,40.974 c-10.808,13.277-20.355,27.457-29.294,42.019c-9.329,15.194-18.147,30.708-27.193,46.078c-6.06,10.298-11.988,20.676-18.239,30.856 c-6.477,10.538-13.035,21.043-19.989,31.272c-9.524,14.01-19.969,27.3-32.613,38.731c-10.294,9.313-22.644,16.201-34.545,18.714 c-11.392,2.263-23.047,0.876-34.415-3.306c-17.555-6.459-31.736-17.446-43.035-32.267c-0.306-0.4-0.604-0.813-0.862-1.241 c-0.288-0.495-0.527-1.012-0.792-1.521c0.411,0.378,0.856,0.719,1.218,1.129c10.842,12.341,23.84,21.479,39.555,26.548 c20.167,6.502,37.77,1.897,54.265-11.059C129.808,266.233,132.565,260.677,132.565,260.677z"/>
	<path fill="#000" d="M420.587,124.485c2.925,13.412,0.414,26.198-4.771,38.659 c-0.182,0.441-0.544,0.805-0.822,1.202c-0.061-0.383-0.206-0.775-0.173-1.147c2.067-23.399-8.303-40.935-26.038-54.908 c-10.861-8.562-23.228-13.804-36.88-16.02c-0.697-0.115-1.356-0.452-2.033-0.687c0.561-0.472,1.056-1.066,1.686-1.398 c16.729-8.902,32.991-7.607,48.378,2.991C410.891,100.723,417.83,111.274,420.587,124.485z"/>
	<path fill="#000" d="M361.157,279.077c-15.294,1.323-30.865-1.065-46.192-5.421 c-17.569-4.995-34.205-12.281-50.317-20.808c-0.446-0.237-0.793-0.668-1.182-1.009c0.466,0.162,0.952,0.278,1.398,0.496 c16.801,8.124,34.107,14.846,52.369,18.926c15.489,3.451,31.118,5.016,46.87,2.505c16.41-2.615,31.281-9.049,44.559-19.121 c6.878-5.217,13.045-11.14,18.482-17.836c0.328-0.398,0.83-0.662,1.252-0.991c-0.203,0.453-0.368,0.924-0.61,1.344 c-6.534,11.047-15.14,20.181-25.722,27.397C389.933,272.843,376.456,277.517,361.157,279.077z"/>
</svg>
